<svg xmlns="http://www.w3.org/2000/svg" xmlns:xlink="http://www.w3.org/1999/xlink" width="1134" zoomAndPan="magnify" viewBox="0 0 850.5 731.249977" height="975" preserveAspectRatio="xMidYMid meet" version="1.0"><defs><clipPath id="3b41cc1e1d"><path d="M 440.226562 245 L 473 245 L 473 279 L 440.226562 279 Z M 440.226562 245 " clip-rule="nonzero"/></clipPath><clipPath id="010c1db44d"><path d="M 549 211 L 582.296875 211 L 582.296875 244 L 549 244 Z M 549 211 " clip-rule="nonzero"/></clipPath><clipPath id="2a59d18156"><path d="M 539 138.171875 L 557 138.171875 L 557 155 L 539 155 Z M 539 138.171875 " clip-rule="nonzero"/></clipPath><clipPath id="d8f10ad506"><path d="M 539 264 L 557 264 L 557 281.457031 L 539 281.457031 Z M 539 264 " clip-rule="nonzero"/></clipPath><clipPath id="181820d1b3"><path d="M 425.265625 584 L 459 584 L 459 617 L 425.265625 617 Z M 425.265625 584 " clip-rule="nonzero"/></clipPath><clipPath id="dc95871587"><path d="M 534 549 L 567.335938 549 L 567.335938 583 L 534 583 Z M 534 549 " clip-rule="nonzero"/></clipPath><clipPath id="b67d1c81ad"><path d="M 524 476.992188 L 542 476.992188 L 542 494 L 524 494 Z M 524 476.992188 " clip-rule="nonzero"/></clipPath><clipPath id="c8705bbdea"><path d="M 524 603 L 542 603 L 542 620.273438 L 524 620.273438 Z M 524 603 " clip-rule="nonzero"/></clipPath><clipPath id="b366e2adc6"><path d="M 582.316406 434 L 622 434 L 622 473 L 582.316406 473 Z M 582.316406 434 " clip-rule="nonzero"/></clipPath><clipPath id="b86f7b50d4"><path d="M 711 393 L 750.492188 393 L 750.492188 433 L 711 433 Z M 711 393 " clip-rule="nonzero"/></clipPath><clipPath id="54f0db671b"><path d="M 699 306.992188 L 720 306.992188 L 720 327 L 699 327 Z M 699 306.992188 " clip-rule="nonzero"/></clipPath><clipPath id="388a629389"><path d="M 699 457 L 720 457 L 720 476.992188 L 699 476.992188 Z M 699 457 " clip-rule="nonzero"/></clipPath><clipPath id="42aa585783"><path d="M 622.222656 232 L 644 232 L 644 254 L 622.222656 254 Z M 622.222656 232 " clip-rule="nonzero"/></clipPath><clipPath id="0c3338b5bb"><path d="M 692 210 L 713.292969 210 L 713.292969 232 L 692 232 Z M 692 210 " clip-rule="nonzero"/></clipPath><clipPath id="da484ec6dc"><path d="M 685 163.78125 L 697 163.78125 L 697 175 L 685 175 Z M 685 163.78125 " clip-rule="nonzero"/></clipPath><clipPath id="d099826212"><path d="M 685 245 L 697 245 L 697 256.066406 L 685 256.066406 Z M 685 245 " clip-rule="nonzero"/></clipPath><clipPath id="32d10aa39e"><path d="M 365.730469 436 L 405 436 L 405 476 L 365.730469 476 Z M 365.730469 436 " clip-rule="nonzero"/></clipPath><clipPath id="1cff7ba4a0"><path d="M 495 395 L 533.90625 395 L 533.90625 435 L 495 435 Z M 495 395 " clip-rule="nonzero"/></clipPath><clipPath id="296a1cea6f"><path d="M 483 309.140625 L 503 309.140625 L 503 330 L 483 330 Z M 483 309.140625 " clip-rule="nonzero"/></clipPath><clipPath id="77a35215cb"><path d="M 483 459 L 503 459 L 503 479.136719 L 483 479.136719 Z M 483 459 " clip-rule="nonzero"/></clipPath><clipPath id="1c2b65cb33"><path d="M 259 419 L 298.167969 419 L 298.167969 459 L 259 459 Z M 259 419 " clip-rule="nonzero"/></clipPath><clipPath id="e54f72644e"><path d="M 247 332.878906 L 268 332.878906 L 268 353 L 247 353 Z M 247 332.878906 " clip-rule="nonzero"/></clipPath><clipPath id="eef3f17834"><path d="M 247 483 L 268 483 L 268 502.878906 L 247 502.878906 Z M 247 483 " clip-rule="nonzero"/></clipPath><clipPath id="9d46083f83"><path d="M 155.707031 287 L 176 287 L 176 308 L 155.707031 308 Z M 155.707031 287 " clip-rule="nonzero"/></clipPath><clipPath id="78027e00d7"><path d="M 220 267 L 240.097656 267 L 240.097656 287 L 220 287 Z M 220 267 " clip-rule="nonzero"/></clipPath><clipPath id="25eeecf5b1"><path d="M 214 224.140625 L 225 224.140625 L 225 235 L 214 235 Z M 214 224.140625 " clip-rule="nonzero"/></clipPath><clipPath id="3dd2283fe0"><path d="M 214 299 L 225 299 L 225 309.140625 L 214 309.140625 Z M 214 299 " clip-rule="nonzero"/></clipPath><clipPath id="f28949c431"><path d="M 319.1875 284 L 346 284 L 346 311 L 319.1875 311 Z M 319.1875 284 " clip-rule="nonzero"/></clipPath><clipPath id="c8de13c460"><path d="M 408 256 L 435.148438 256 L 435.148438 283 L 408 283 Z M 408 256 " clip-rule="nonzero"/></clipPath><clipPath id="685e449043"><path d="M 400 196.449219 L 414 196.449219 L 414 211 L 400 211 Z M 400 196.449219 " clip-rule="nonzero"/></clipPath><clipPath id="2a4cba333a"><path d="M 400 299 L 414 299 L 414 313.628906 L 400 313.628906 Z M 400 299 " clip-rule="nonzero"/></clipPath><clipPath id="45b0b3fb79"><path d="M 327.585938 587 L 346 587 L 346 605 L 327.585938 605 Z M 327.585938 587 " clip-rule="nonzero"/></clipPath><clipPath id="8c09eeece1"><path d="M 386 568 L 404.085938 568 L 404.085938 587 L 386 587 Z M 386 568 " clip-rule="nonzero"/></clipPath><clipPath id="9398ba230b"><path d="M 380 529.433594 L 390 529.433594 L 390 539 L 380 539 Z M 380 529.433594 " clip-rule="nonzero"/></clipPath><clipPath id="b50db6b6de"><path d="M 380 597 L 390 597 L 390 606.539062 L 380 606.539062 Z M 380 597 " clip-rule="nonzero"/></clipPath></defs><path fill="#b3c85f" d="M 60.324219 169.949219 C 38.730469 207.632812 47.945312 255.71875 59.96875 297.808594 C 71.988281 339.910156 86.210938 385.035156 72.757812 426.65625 C 68.691406 439.238281 62.132812 451.214844 61.183594 464.457031 C 59.371094 489.742188 79.207031 512.195312 101.878906 521.21875 C 124.546875 530.242188 149.574219 529.03125 173.824219 528.535156 C 198.074219 528.035156 223.460938 528.664062 244.796875 540.726562 C 288.089844 565.207031 298.914062 626.191406 335.816406 660.257812 C 363.839844 686.132812 404.195312 693.253906 441.257812 688.078125 C 478.328125 682.910156 513.078125 666.855469 547.25 650.988281 C 597.863281 627.480469 648.863281 603.746094 693.960938 570.140625 C 735.894531 538.894531 772.875 498.242188 792.277344 448.375 C 811.6875 398.503906 811.492188 338.664062 784.074219 293.097656 C 761.582031 255.71875 721.167969 225.675781 719.960938 181.53125 C 719.25 155.59375 733.046875 130.167969 728.523438 104.652344 C 718.1875 46.371094 638.714844 37.609375 594.332031 44.039062 C 541.226562 51.734375 496.871094 83.007812 459.800781 121.894531 C 435.820312 147.046875 413.140625 178.523438 377.167969 183.589844 C 323.566406 191.140625 268.921875 150.257812 219.941406 133.625 C 167.164062 115.695312 93.144531 112.675781 60.324219 169.949219 " fill-opacity="1" fill-rule="nonzero"/><path fill="#bcd168" d="M 506.011719 187.375 C 519.113281 187.375 529.730469 197.988281 529.730469 211.078125 C 529.730469 224.167969 519.113281 234.78125 506.011719 234.78125 C 492.910156 234.78125 482.292969 224.167969 482.292969 211.078125 C 482.292969 197.988281 492.910156 187.375 506.011719 187.375 " fill-opacity="1" fill-rule="nonzero"/><g clip-path="url(#3b41cc1e1d)"><path fill="#bcd168" d="M 456.636719 245.398438 C 465.664062 245.398438 472.976562 252.707031 472.976562 261.722656 C 472.976562 270.738281 465.664062 278.046875 456.636719 278.046875 C 447.613281 278.046875 440.296875 270.738281 440.296875 261.722656 C 440.296875 252.707031 447.613281 245.398438 456.636719 245.398438 " fill-opacity="1" fill-rule="nonzero"/></g><g clip-path="url(#010c1db44d)"><path fill="#bcd168" d="M 565.886719 211.078125 C 574.910156 211.078125 582.222656 218.386719 582.222656 227.402344 C 582.222656 236.421875 574.910156 243.730469 565.886719 243.730469 C 556.859375 243.730469 549.542969 236.421875 549.542969 227.402344 C 549.542969 218.386719 556.859375 211.078125 565.886719 211.078125 " fill-opacity="1" fill-rule="nonzero"/></g><path fill="#bcd168" d="M 461.472656 167.019531 C 468.097656 167.019531 473.464844 172.386719 473.464844 179 C 473.464844 185.617188 468.097656 190.984375 461.472656 190.984375 C 454.851562 190.984375 449.484375 185.617188 449.484375 179 C 449.484375 172.386719 454.851562 167.019531 461.472656 167.019531 " fill-opacity="1" fill-rule="nonzero"/><g clip-path="url(#2a59d18156)"><path fill="#bcd168" d="M 547.757812 138.171875 C 552.382812 138.171875 556.136719 141.921875 556.136719 146.546875 C 556.136719 151.171875 552.382812 154.921875 547.757812 154.921875 C 543.125 154.921875 539.375 151.171875 539.375 146.546875 C 539.375 141.921875 543.125 138.171875 547.757812 138.171875 " fill-opacity="1" fill-rule="nonzero"/></g><g clip-path="url(#d8f10ad506)"><path fill="#bcd168" d="M 547.757812 264.707031 C 552.382812 264.707031 556.136719 268.457031 556.136719 273.078125 C 556.136719 277.707031 552.382812 281.457031 547.757812 281.457031 C 543.125 281.457031 539.375 277.707031 539.375 273.078125 C 539.375 268.457031 543.125 264.707031 547.757812 264.707031 " fill-opacity="1" fill-rule="nonzero"/></g><path fill="#cadb88" d="M 512.863281 192.894531 C 516.824219 192.894531 520.039062 196.105469 520.039062 200.066406 C 520.039062 204.027344 516.824219 207.234375 512.863281 207.234375 C 508.898438 207.234375 505.683594 204.027344 505.683594 200.066406 C 505.683594 196.105469 508.898438 192.894531 512.863281 192.894531 " fill-opacity="1" fill-rule="nonzero"/><path fill="#cadb88" d="M 460.601562 250.539062 C 463.195312 250.539062 465.300781 252.640625 465.300781 255.234375 C 465.300781 257.828125 463.195312 259.929688 460.601562 259.929688 C 458.003906 259.929688 455.902344 257.828125 455.902344 255.234375 C 455.902344 252.640625 458.003906 250.539062 460.601562 250.539062 " fill-opacity="1" fill-rule="nonzero"/><path fill="#cadb88" d="M 570.582031 214.152344 C 573.175781 214.152344 575.28125 216.253906 575.28125 218.847656 C 575.28125 221.441406 573.175781 223.542969 570.582031 223.542969 C 567.988281 223.542969 565.886719 221.441406 565.886719 218.847656 C 565.886719 216.253906 567.988281 214.152344 570.582031 214.152344 " fill-opacity="1" fill-rule="nonzero"/><path fill="#bcd168" d="M 491.050781 526.195312 C 504.152344 526.195312 514.769531 536.804688 514.769531 549.894531 C 514.769531 562.984375 504.152344 573.597656 491.050781 573.597656 C 477.949219 573.597656 467.332031 562.984375 467.332031 549.894531 C 467.332031 536.804688 477.949219 526.195312 491.050781 526.195312 " fill-opacity="1" fill-rule="nonzero"/><g clip-path="url(#181820d1b3)"><path fill="#bcd168" d="M 441.675781 584.214844 C 450.703125 584.214844 458.015625 591.527344 458.015625 600.542969 C 458.015625 609.558594 450.703125 616.867188 441.675781 616.867188 C 432.652344 616.867188 425.335938 609.558594 425.335938 600.542969 C 425.335938 591.527344 432.652344 584.214844 441.675781 584.214844 " fill-opacity="1" fill-rule="nonzero"/></g><g clip-path="url(#dc95871587)"><path fill="#bcd168" d="M 550.925781 549.894531 C 559.949219 549.894531 567.261719 557.207031 567.261719 566.222656 C 567.261719 575.242188 559.949219 582.546875 550.925781 582.546875 C 541.898438 582.546875 534.585938 575.242188 534.585938 566.222656 C 534.585938 557.207031 541.898438 549.894531 550.925781 549.894531 " fill-opacity="1" fill-rule="nonzero"/></g><path fill="#bcd168" d="M 446.511719 505.839844 C 453.136719 505.839844 458.503906 511.203125 458.503906 517.820312 C 458.503906 524.4375 453.136719 529.800781 446.511719 529.800781 C 439.890625 529.800781 434.523438 524.4375 434.523438 517.820312 C 434.523438 511.203125 439.890625 505.839844 446.511719 505.839844 " fill-opacity="1" fill-rule="nonzero"/><g clip-path="url(#b67d1c81ad)"><path fill="#bcd168" d="M 532.796875 476.992188 C 537.425781 476.992188 541.175781 480.742188 541.175781 485.367188 C 541.175781 489.992188 537.425781 493.742188 532.796875 493.742188 C 528.164062 493.742188 524.414062 489.992188 524.414062 485.367188 C 524.414062 480.742188 528.164062 476.992188 532.796875 476.992188 " fill-opacity="1" fill-rule="nonzero"/></g><g clip-path="url(#c8705bbdea)"><path fill="#bcd168" d="M 532.796875 603.527344 C 537.425781 603.527344 541.175781 607.273438 541.175781 611.898438 C 541.175781 616.527344 537.425781 620.273438 532.796875 620.273438 C 528.164062 620.273438 524.414062 616.527344 524.414062 611.898438 C 524.414062 607.273438 528.164062 603.527344 532.796875 603.527344 " fill-opacity="1" fill-rule="nonzero"/></g><path fill="#cadb88" d="M 497.902344 531.714844 C 501.863281 531.714844 505.078125 534.925781 505.078125 538.882812 C 505.078125 542.847656 501.863281 546.054688 497.902344 546.054688 C 493.9375 546.054688 490.722656 542.847656 490.722656 538.882812 C 490.722656 534.925781 493.9375 531.714844 497.902344 531.714844 " fill-opacity="1" fill-rule="nonzero"/><path fill="#cadb88" d="M 445.640625 589.359375 C 448.238281 589.359375 450.339844 591.460938 450.339844 594.050781 C 450.339844 596.644531 448.238281 598.746094 445.640625 598.746094 C 443.046875 598.746094 440.941406 596.644531 440.941406 594.050781 C 440.941406 591.460938 443.046875 589.359375 445.640625 589.359375 " fill-opacity="1" fill-rule="nonzero"/><path fill="#cadb88" d="M 555.621094 552.972656 C 558.21875 552.972656 560.320312 555.070312 560.320312 557.667969 C 560.320312 560.261719 558.21875 562.363281 555.621094 562.363281 C 553.027344 562.363281 550.925781 560.261719 550.925781 557.667969 C 550.925781 555.070312 553.027344 552.972656 555.621094 552.972656 " fill-opacity="1" fill-rule="nonzero"/><path fill="#bcd168" d="M 660.191406 365.371094 C 675.699219 365.371094 688.269531 377.960938 688.269531 393.492188 C 688.269531 409.019531 675.699219 421.613281 660.191406 421.613281 C 644.683594 421.613281 632.113281 409.019531 632.113281 393.492188 C 632.113281 377.960938 644.683594 365.371094 660.191406 365.371094 " fill-opacity="1" fill-rule="nonzero"/><g clip-path="url(#b366e2adc6)"><path fill="#bcd168" d="M 601.746094 434.210938 C 612.429688 434.210938 621.085938 442.882812 621.085938 453.582031 C 621.085938 464.277344 612.429688 472.949219 601.746094 472.949219 C 591.0625 472.949219 582.402344 464.277344 582.402344 453.582031 C 582.402344 442.882812 591.0625 434.210938 601.746094 434.210938 " fill-opacity="1" fill-rule="nonzero"/></g><g clip-path="url(#b86f7b50d4)"><path fill="#bcd168" d="M 731.066406 393.492188 C 741.75 393.492188 750.40625 402.164062 750.40625 412.863281 C 750.40625 423.558594 741.75 432.230469 731.066406 432.230469 C 720.382812 432.230469 711.726562 423.558594 711.726562 412.863281 C 711.726562 402.164062 720.382812 393.492188 731.066406 393.492188 " fill-opacity="1" fill-rule="nonzero"/></g><path fill="#bcd168" d="M 607.46875 341.21875 C 615.308594 341.21875 621.664062 347.585938 621.664062 355.433594 C 621.664062 363.285156 615.308594 369.652344 607.46875 369.652344 C 599.628906 369.652344 593.273438 363.285156 593.273438 355.433594 C 593.273438 347.585938 599.628906 341.21875 607.46875 341.21875 " fill-opacity="1" fill-rule="nonzero"/><g clip-path="url(#54f0db671b)"><path fill="#bcd168" d="M 709.609375 306.996094 C 715.085938 306.996094 719.527344 311.445312 719.527344 316.933594 C 719.527344 322.417969 715.085938 326.867188 709.609375 326.867188 C 704.125 326.867188 699.683594 322.417969 699.683594 316.933594 C 699.683594 311.445312 704.125 306.996094 709.609375 306.996094 " fill-opacity="1" fill-rule="nonzero"/></g><g clip-path="url(#388a629389)"><path fill="#bcd168" d="M 709.609375 457.121094 C 715.085938 457.121094 719.527344 461.566406 719.527344 467.054688 C 719.527344 472.542969 715.085938 476.992188 709.609375 476.992188 C 704.125 476.992188 699.683594 472.542969 699.683594 467.054688 C 699.683594 461.566406 704.125 457.121094 709.609375 457.121094 " fill-opacity="1" fill-rule="nonzero"/></g><path fill="#cadb88" d="M 668.300781 371.917969 C 672.992188 371.917969 676.796875 375.730469 676.796875 380.425781 C 676.796875 385.128906 672.992188 388.933594 668.300781 388.933594 C 663.609375 388.933594 659.804688 385.128906 659.804688 380.425781 C 659.804688 375.730469 663.609375 371.917969 668.300781 371.917969 " fill-opacity="1" fill-rule="nonzero"/><path fill="#cadb88" d="M 606.4375 440.3125 C 609.507812 440.3125 612 442.804688 612 445.878906 C 612 448.957031 609.507812 451.449219 606.4375 451.449219 C 603.363281 451.449219 600.875 448.957031 600.875 445.878906 C 600.875 442.804688 603.363281 440.3125 606.4375 440.3125 " fill-opacity="1" fill-rule="nonzero"/><path fill="#cadb88" d="M 736.628906 397.140625 C 739.699219 397.140625 742.191406 399.632812 742.191406 402.710938 C 742.191406 405.789062 739.699219 408.28125 736.628906 408.28125 C 733.558594 408.28125 731.066406 405.789062 731.066406 402.710938 C 731.066406 399.632812 733.558594 397.140625 736.628906 397.140625 " fill-opacity="1" fill-rule="nonzero"/><path fill="#bcd168" d="M 664.390625 195.472656 C 672.792969 195.472656 679.597656 202.308594 679.597656 210.738281 C 679.597656 219.167969 672.792969 226.003906 664.390625 226.003906 C 655.992188 226.003906 649.183594 219.167969 649.183594 210.738281 C 649.183594 202.308594 655.992188 195.472656 664.390625 195.472656 " fill-opacity="1" fill-rule="nonzero"/><g clip-path="url(#42aa585783)"><path fill="#bcd168" d="M 632.738281 232.84375 C 638.523438 232.84375 643.214844 237.550781 643.214844 243.359375 C 643.214844 249.164062 638.523438 253.875 632.738281 253.875 C 626.953125 253.875 622.265625 249.164062 622.265625 243.359375 C 622.265625 237.550781 626.953125 232.84375 632.738281 232.84375 " fill-opacity="1" fill-rule="nonzero"/></g><g clip-path="url(#0c3338b5bb)"><path fill="#bcd168" d="M 702.777344 210.738281 C 708.5625 210.738281 713.25 215.445312 713.25 221.253906 C 713.25 227.0625 708.5625 231.769531 702.777344 231.769531 C 696.988281 231.769531 692.300781 227.0625 692.300781 221.253906 C 692.300781 215.445312 696.988281 210.738281 702.777344 210.738281 " fill-opacity="1" fill-rule="nonzero"/></g><path fill="#bcd168" d="M 635.839844 182.363281 C 640.085938 182.363281 643.527344 185.820312 643.527344 190.078125 C 643.527344 194.339844 640.085938 197.796875 635.839844 197.796875 C 631.59375 197.796875 628.152344 194.339844 628.152344 190.078125 C 628.152344 185.820312 631.59375 182.363281 635.839844 182.363281 " fill-opacity="1" fill-rule="nonzero"/><g clip-path="url(#da484ec6dc)"><path fill="#bcd168" d="M 691.15625 163.785156 C 694.121094 163.785156 696.527344 166.199219 696.527344 169.179688 C 696.527344 172.15625 694.121094 174.570312 691.15625 174.570312 C 688.1875 174.570312 685.78125 172.15625 685.78125 169.179688 C 685.78125 166.199219 688.1875 163.785156 691.15625 163.785156 " fill-opacity="1" fill-rule="nonzero"/></g><g clip-path="url(#d099826212)"><path fill="#bcd168" d="M 691.15625 245.28125 C 694.121094 245.28125 696.527344 247.695312 696.527344 250.671875 C 696.527344 253.652344 694.121094 256.066406 691.15625 256.066406 C 688.1875 256.066406 685.78125 253.652344 685.78125 250.671875 C 685.78125 247.695312 688.1875 245.28125 691.15625 245.28125 " fill-opacity="1" fill-rule="nonzero"/></g><path fill="#cadb88" d="M 668.785156 199.027344 C 671.324219 199.027344 673.386719 201.097656 673.386719 203.648438 C 673.386719 206.199219 671.324219 208.265625 668.785156 208.265625 C 666.242188 208.265625 664.183594 206.199219 664.183594 203.648438 C 664.183594 201.097656 666.242188 199.027344 668.785156 199.027344 " fill-opacity="1" fill-rule="nonzero"/><path fill="#cadb88" d="M 635.28125 236.15625 C 636.945312 236.15625 638.292969 237.507812 638.292969 239.179688 C 638.292969 240.847656 636.945312 242.203125 635.28125 242.203125 C 633.617188 242.203125 632.269531 240.847656 632.269531 239.179688 C 632.269531 237.507812 633.617188 236.15625 635.28125 236.15625 " fill-opacity="1" fill-rule="nonzero"/><path fill="#cadb88" d="M 705.789062 212.71875 C 707.453125 212.71875 708.800781 214.074219 708.800781 215.742188 C 708.800781 217.414062 707.453125 218.769531 705.789062 218.769531 C 704.125 218.769531 702.777344 217.414062 702.777344 215.742188 C 702.777344 214.074219 704.125 212.71875 705.789062 212.71875 " fill-opacity="1" fill-rule="nonzero"/><path fill="#bcd168" d="M 443.605469 367.519531 C 459.113281 367.519531 471.683594 380.105469 471.683594 395.636719 C 471.683594 411.167969 459.113281 423.757812 443.605469 423.757812 C 428.097656 423.757812 415.527344 411.167969 415.527344 395.636719 C 415.527344 380.105469 428.097656 367.519531 443.605469 367.519531 " fill-opacity="1" fill-rule="nonzero"/><g clip-path="url(#32d10aa39e)"><path fill="#bcd168" d="M 385.160156 436.355469 C 395.84375 436.355469 404.5 445.027344 404.5 455.726562 C 404.5 466.421875 395.84375 475.09375 385.160156 475.09375 C 374.476562 475.09375 365.816406 466.421875 365.816406 455.726562 C 365.816406 445.027344 374.476562 436.355469 385.160156 436.355469 " fill-opacity="1" fill-rule="nonzero"/></g><g clip-path="url(#1cff7ba4a0)"><path fill="#bcd168" d="M 514.480469 395.636719 C 525.164062 395.636719 533.820312 404.308594 533.820312 415.007812 C 533.820312 425.707031 525.164062 434.375 514.480469 434.375 C 503.796875 434.375 495.140625 425.707031 495.140625 415.007812 C 495.140625 404.308594 503.796875 395.636719 514.480469 395.636719 " fill-opacity="1" fill-rule="nonzero"/></g><path fill="#bcd168" d="M 390.882812 343.367188 C 398.722656 343.367188 405.078125 349.730469 405.078125 357.582031 C 405.078125 365.429688 398.722656 371.796875 390.882812 371.796875 C 383.042969 371.796875 376.691406 365.429688 376.691406 357.582031 C 376.691406 349.730469 383.042969 343.367188 390.882812 343.367188 " fill-opacity="1" fill-rule="nonzero"/><g clip-path="url(#296a1cea6f)"><path fill="#bcd168" d="M 493.023438 309.140625 C 498.5 309.140625 502.941406 313.589844 502.941406 319.078125 C 502.941406 324.566406 498.5 329.015625 493.023438 329.015625 C 487.539062 329.015625 483.097656 324.566406 483.097656 319.078125 C 483.097656 313.589844 487.539062 309.140625 493.023438 309.140625 " fill-opacity="1" fill-rule="nonzero"/></g><g clip-path="url(#77a35215cb)"><path fill="#bcd168" d="M 493.023438 459.265625 C 498.5 459.265625 502.941406 463.714844 502.941406 469.199219 C 502.941406 474.691406 498.5 479.136719 493.023438 479.136719 C 487.539062 479.136719 483.097656 474.691406 483.097656 469.199219 C 483.097656 463.714844 487.539062 459.265625 493.023438 459.265625 " fill-opacity="1" fill-rule="nonzero"/></g><path fill="#cadb88" d="M 451.714844 374.066406 C 456.40625 374.066406 460.210938 377.875 460.210938 382.574219 C 460.210938 387.273438 456.40625 391.082031 451.714844 391.082031 C 447.023438 391.082031 443.21875 387.273438 443.21875 382.574219 C 443.21875 377.875 447.023438 374.066406 451.714844 374.066406 " fill-opacity="1" fill-rule="nonzero"/><path fill="#cadb88" d="M 389.851562 442.457031 C 392.925781 442.457031 395.414062 444.953125 395.414062 448.027344 C 395.414062 451.101562 392.925781 453.597656 389.851562 453.597656 C 386.777344 453.597656 384.289062 451.101562 384.289062 448.027344 C 384.289062 444.953125 386.777344 442.457031 389.851562 442.457031 " fill-opacity="1" fill-rule="nonzero"/><path fill="#cadb88" d="M 520.042969 399.285156 C 523.113281 399.285156 525.605469 401.777344 525.605469 404.855469 C 525.605469 407.933594 523.113281 410.425781 520.042969 410.425781 C 516.972656 410.425781 514.480469 407.933594 514.480469 404.855469 C 514.480469 401.777344 516.972656 399.285156 520.042969 399.285156 " fill-opacity="1" fill-rule="nonzero"/><path fill="#bcd168" d="M 207.867188 391.257812 C 223.375 391.257812 235.945312 403.847656 235.945312 419.378906 C 235.945312 434.90625 223.375 447.5 207.867188 447.5 C 192.359375 447.5 179.789062 434.90625 179.789062 419.378906 C 179.789062 403.847656 192.359375 391.257812 207.867188 391.257812 " fill-opacity="1" fill-rule="nonzero"/><path fill="#bcd168" d="M 149.421875 460.09375 C 160.105469 460.09375 168.761719 468.769531 168.761719 479.46875 C 168.761719 490.160156 160.105469 498.835938 149.421875 498.835938 C 138.738281 498.835938 130.078125 490.160156 130.078125 479.46875 C 130.078125 468.769531 138.738281 460.09375 149.421875 460.09375 " fill-opacity="1" fill-rule="nonzero"/><g clip-path="url(#1c2b65cb33)"><path fill="#bcd168" d="M 278.742188 419.378906 C 289.425781 419.378906 298.082031 428.050781 298.082031 438.75 C 298.082031 449.445312 289.425781 458.117188 278.742188 458.117188 C 268.058594 458.117188 259.398438 449.445312 259.398438 438.75 C 259.398438 428.050781 268.058594 419.378906 278.742188 419.378906 " fill-opacity="1" fill-rule="nonzero"/></g><path fill="#bcd168" d="M 155.144531 367.105469 C 162.984375 367.105469 169.339844 373.472656 169.339844 381.320312 C 169.339844 389.171875 162.984375 395.535156 155.144531 395.535156 C 147.304688 395.535156 140.949219 389.171875 140.949219 381.320312 C 140.949219 373.472656 147.304688 367.105469 155.144531 367.105469 " fill-opacity="1" fill-rule="nonzero"/><g clip-path="url(#e54f72644e)"><path fill="#bcd168" d="M 257.285156 332.882812 C 262.761719 332.882812 267.203125 337.332031 267.203125 342.816406 C 267.203125 348.304688 262.761719 352.753906 257.285156 352.753906 C 251.800781 352.753906 247.359375 348.304688 247.359375 342.816406 C 247.359375 337.332031 251.800781 332.882812 257.285156 332.882812 " fill-opacity="1" fill-rule="nonzero"/></g><g clip-path="url(#eef3f17834)"><path fill="#bcd168" d="M 257.285156 483.007812 C 262.761719 483.007812 267.203125 487.453125 267.203125 492.941406 C 267.203125 498.429688 262.761719 502.878906 257.285156 502.878906 C 251.800781 502.878906 247.359375 498.429688 247.359375 492.941406 C 247.359375 487.453125 251.800781 483.007812 257.285156 483.007812 " fill-opacity="1" fill-rule="nonzero"/></g><path fill="#cadb88" d="M 215.976562 397.804688 C 220.667969 397.804688 224.472656 401.613281 224.472656 406.3125 C 224.472656 411.011719 220.667969 414.820312 215.976562 414.820312 C 211.285156 414.820312 207.480469 411.011719 207.480469 406.3125 C 207.480469 401.613281 211.285156 397.804688 215.976562 397.804688 " fill-opacity="1" fill-rule="nonzero"/><path fill="#cadb88" d="M 154.113281 466.199219 C 157.183594 466.199219 159.675781 468.691406 159.675781 471.765625 C 159.675781 474.84375 157.183594 477.335938 154.113281 477.335938 C 151.039062 477.335938 148.550781 474.84375 148.550781 471.765625 C 148.550781 468.691406 151.039062 466.199219 154.113281 466.199219 " fill-opacity="1" fill-rule="nonzero"/><path fill="#cadb88" d="M 284.300781 423.023438 C 287.375 423.023438 289.867188 425.519531 289.867188 428.597656 C 289.867188 431.675781 287.375 434.167969 284.300781 434.167969 C 281.234375 434.167969 278.742188 431.675781 278.742188 428.597656 C 278.742188 425.519531 281.234375 423.023438 284.300781 423.023438 " fill-opacity="1" fill-rule="nonzero"/><path fill="#bcd168" d="M 194.785156 253.332031 C 202.566406 253.332031 208.875 259.625 208.875 267.390625 C 208.875 275.15625 202.566406 281.449219 194.785156 281.449219 C 187.003906 281.449219 180.695312 275.15625 180.695312 267.390625 C 180.695312 259.625 187.003906 253.332031 194.785156 253.332031 " fill-opacity="1" fill-rule="nonzero"/><g clip-path="url(#9d46083f83)"><path fill="#bcd168" d="M 165.457031 287.75 C 170.816406 287.75 175.160156 292.085938 175.160156 297.433594 C 175.160156 302.78125 170.816406 307.117188 165.457031 307.117188 C 160.09375 307.117188 155.75 302.78125 155.75 297.433594 C 155.75 292.085938 160.09375 287.75 165.457031 287.75 " fill-opacity="1" fill-rule="nonzero"/></g><g clip-path="url(#78027e00d7)"><path fill="#bcd168" d="M 230.351562 267.390625 C 235.710938 267.390625 240.054688 271.726562 240.054688 277.074219 C 240.054688 282.425781 235.710938 286.757812 230.351562 286.757812 C 224.988281 286.757812 220.644531 282.425781 220.644531 277.074219 C 220.644531 271.726562 224.988281 267.390625 230.351562 267.390625 " fill-opacity="1" fill-rule="nonzero"/></g><path fill="#bcd168" d="M 168.328125 241.253906 C 172.261719 241.253906 175.453125 244.4375 175.453125 248.363281 C 175.453125 252.285156 172.261719 255.46875 168.328125 255.46875 C 164.394531 255.46875 161.207031 252.285156 161.207031 248.363281 C 161.207031 244.4375 164.394531 241.253906 168.328125 241.253906 " fill-opacity="1" fill-rule="nonzero"/><g clip-path="url(#25eeecf5b1)"><path fill="#bcd168" d="M 219.582031 224.140625 C 222.332031 224.140625 224.558594 226.367188 224.558594 229.109375 C 224.558594 231.855469 222.332031 234.078125 219.582031 234.078125 C 216.832031 234.078125 214.601562 231.855469 214.601562 229.109375 C 214.601562 226.367188 216.832031 224.140625 219.582031 224.140625 " fill-opacity="1" fill-rule="nonzero"/></g><g clip-path="url(#3dd2283fe0)"><path fill="#bcd168" d="M 219.582031 299.203125 C 222.332031 299.203125 224.558594 301.429688 224.558594 304.171875 C 224.558594 306.917969 222.332031 309.140625 219.582031 309.140625 C 216.832031 309.140625 214.601562 306.917969 214.601562 304.171875 C 214.601562 301.429688 216.832031 299.203125 219.582031 299.203125 " fill-opacity="1" fill-rule="nonzero"/></g><path fill="#cadb88" d="M 198.855469 256.601562 C 201.207031 256.601562 203.117188 258.507812 203.117188 260.855469 C 203.117188 263.207031 201.207031 265.109375 198.855469 265.109375 C 196.5 265.109375 194.589844 263.207031 194.589844 260.855469 C 194.589844 258.507812 196.5 256.601562 198.855469 256.601562 " fill-opacity="1" fill-rule="nonzero"/><path fill="#cadb88" d="M 167.808594 290.800781 C 169.351562 290.800781 170.601562 292.046875 170.601562 293.582031 C 170.601562 295.121094 169.351562 296.371094 167.808594 296.371094 C 166.269531 296.371094 165.019531 295.121094 165.019531 293.582031 C 165.019531 292.046875 166.269531 290.800781 167.808594 290.800781 " fill-opacity="1" fill-rule="nonzero"/><path fill="#cadb88" d="M 233.140625 269.214844 C 234.683594 269.214844 235.929688 270.460938 235.929688 272 C 235.929688 273.539062 234.683594 274.785156 233.140625 274.785156 C 231.601562 274.785156 230.351562 273.539062 230.351562 272 C 230.351562 270.460938 231.601562 269.214844 233.140625 269.214844 " fill-opacity="1" fill-rule="nonzero"/><path fill="#bcd168" d="M 372.882812 236.691406 C 383.578125 236.691406 392.246094 245.367188 392.246094 256.070312 C 392.246094 266.777344 383.578125 275.457031 372.882812 275.457031 C 362.191406 275.457031 353.523438 266.777344 353.523438 256.070312 C 353.523438 245.367188 362.191406 236.691406 372.882812 236.691406 " fill-opacity="1" fill-rule="nonzero"/><g clip-path="url(#f28949c431)"><path fill="#bcd168" d="M 332.582031 284.136719 C 339.949219 284.136719 345.917969 290.117188 345.917969 297.492188 C 345.917969 304.863281 339.949219 310.839844 332.582031 310.839844 C 325.214844 310.839844 319.246094 304.863281 319.246094 297.492188 C 319.246094 290.117188 325.214844 284.136719 332.582031 284.136719 " fill-opacity="1" fill-rule="nonzero"/></g><g clip-path="url(#c8de13c460)"><path fill="#bcd168" d="M 421.753906 256.070312 C 429.121094 256.070312 435.089844 262.050781 435.089844 269.425781 C 435.089844 276.796875 429.121094 282.773438 421.753906 282.773438 C 414.386719 282.773438 408.417969 276.796875 408.417969 269.425781 C 408.417969 262.050781 414.386719 256.070312 421.753906 256.070312 " fill-opacity="1" fill-rule="nonzero"/></g><path fill="#bcd168" d="M 336.53125 220.042969 C 341.9375 220.042969 346.320312 224.429688 346.320312 229.839844 C 346.320312 235.25 341.9375 239.640625 336.53125 239.640625 C 331.125 239.640625 326.742188 235.25 326.742188 229.839844 C 326.742188 224.429688 331.125 220.042969 336.53125 220.042969 " fill-opacity="1" fill-rule="nonzero"/><g clip-path="url(#685e449043)"><path fill="#bcd168" d="M 406.957031 196.449219 C 410.734375 196.449219 413.796875 199.519531 413.796875 203.300781 C 413.796875 207.082031 410.734375 210.148438 406.957031 210.148438 C 403.175781 210.148438 400.117188 207.082031 400.117188 203.300781 C 400.117188 199.519531 403.175781 196.449219 406.957031 196.449219 " fill-opacity="1" fill-rule="nonzero"/></g><g clip-path="url(#2a4cba333a)"><path fill="#bcd168" d="M 406.957031 299.929688 C 410.734375 299.929688 413.796875 302.996094 413.796875 306.777344 C 413.796875 310.5625 410.734375 313.628906 406.957031 313.628906 C 403.175781 313.628906 400.117188 310.5625 400.117188 306.777344 C 400.117188 302.996094 403.175781 299.929688 406.957031 299.929688 " fill-opacity="1" fill-rule="nonzero"/></g><path fill="#cadb88" d="M 378.476562 241.203125 C 381.710938 241.203125 384.332031 243.828125 384.332031 247.066406 C 384.332031 250.308594 381.710938 252.929688 378.476562 252.929688 C 375.238281 252.929688 372.617188 250.308594 372.617188 247.066406 C 372.617188 243.828125 375.238281 241.203125 378.476562 241.203125 " fill-opacity="1" fill-rule="nonzero"/><path fill="#cadb88" d="M 335.820312 288.34375 C 337.9375 288.34375 339.652344 290.0625 339.652344 292.183594 C 339.652344 294.304688 337.9375 296.023438 335.820312 296.023438 C 333.699219 296.023438 331.984375 294.304688 331.984375 292.183594 C 331.984375 290.0625 333.699219 288.34375 335.820312 288.34375 " fill-opacity="1" fill-rule="nonzero"/><path fill="#cadb88" d="M 425.585938 258.585938 C 427.707031 258.585938 429.421875 260.304688 429.421875 262.425781 C 429.421875 264.546875 427.707031 266.265625 425.585938 266.265625 C 423.472656 266.265625 421.753906 264.546875 421.753906 262.425781 C 421.753906 260.304688 423.472656 258.585938 425.585938 258.585938 " fill-opacity="1" fill-rule="nonzero"/><path fill="#bcd168" d="M 363.007812 555.914062 C 370.0625 555.914062 375.78125 561.621094 375.78125 568.667969 C 375.78125 575.710938 370.0625 581.421875 363.007812 581.421875 C 355.953125 581.421875 350.234375 575.710938 350.234375 568.667969 C 350.234375 561.621094 355.953125 555.914062 363.007812 555.914062 " fill-opacity="1" fill-rule="nonzero"/><g clip-path="url(#45b0b3fb79)"><path fill="#bcd168" d="M 336.421875 587.136719 C 341.28125 587.136719 345.21875 591.070312 345.21875 595.921875 C 345.21875 600.773438 341.28125 604.707031 336.421875 604.707031 C 331.5625 604.707031 327.625 600.773438 327.625 595.921875 C 327.625 591.070312 331.5625 587.136719 336.421875 587.136719 " fill-opacity="1" fill-rule="nonzero"/></g><g clip-path="url(#8c09eeece1)"><path fill="#bcd168" d="M 395.246094 568.667969 C 400.105469 568.667969 404.042969 572.601562 404.042969 577.453125 C 404.042969 582.304688 400.105469 586.238281 395.246094 586.238281 C 390.386719 586.238281 386.449219 582.304688 386.449219 577.453125 C 386.449219 572.601562 390.386719 568.667969 395.246094 568.667969 " fill-opacity="1" fill-rule="nonzero"/></g><path fill="#bcd168" d="M 339.027344 544.957031 C 342.59375 544.957031 345.484375 547.84375 345.484375 551.40625 C 345.484375 554.964844 342.59375 557.855469 339.027344 557.855469 C 335.460938 557.855469 332.570312 554.964844 332.570312 551.40625 C 332.570312 547.84375 335.460938 544.957031 339.027344 544.957031 " fill-opacity="1" fill-rule="nonzero"/><g clip-path="url(#9398ba230b)"><path fill="#bcd168" d="M 385.484375 529.433594 C 387.976562 529.433594 389.996094 531.453125 389.996094 533.941406 C 389.996094 536.429688 387.976562 538.449219 385.484375 538.449219 C 382.992188 538.449219 380.972656 536.429688 380.972656 533.941406 C 380.972656 531.453125 382.992188 529.433594 385.484375 529.433594 " fill-opacity="1" fill-rule="nonzero"/></g><g clip-path="url(#b50db6b6de)"><path fill="#bcd168" d="M 385.484375 597.527344 C 387.976562 597.527344 389.996094 599.542969 389.996094 602.03125 C 389.996094 604.523438 387.976562 606.539062 385.484375 606.539062 C 382.992188 606.539062 380.972656 604.523438 380.972656 602.03125 C 380.972656 599.542969 382.992188 597.527344 385.484375 597.527344 " fill-opacity="1" fill-rule="nonzero"/></g><path fill="#cadb88" d="M 366.699219 558.882812 C 368.832031 558.882812 370.5625 560.609375 370.5625 562.742188 C 370.5625 564.875 368.832031 566.601562 366.699219 566.601562 C 364.5625 566.601562 362.832031 564.875 362.832031 562.742188 C 362.832031 560.609375 364.5625 558.882812 366.699219 558.882812 " fill-opacity="1" fill-rule="nonzero"/><path fill="#cadb88" d="M 338.558594 589.902344 C 339.953125 589.902344 341.085938 591.035156 341.085938 592.429688 C 341.085938 593.824219 339.953125 594.957031 338.558594 594.957031 C 337.160156 594.957031 336.027344 593.824219 336.027344 592.429688 C 336.027344 591.035156 337.160156 589.902344 338.558594 589.902344 " fill-opacity="1" fill-rule="nonzero"/><path fill="#cadb88" d="M 397.777344 570.320312 C 399.175781 570.320312 400.304688 571.453125 400.304688 572.847656 C 400.304688 574.246094 399.175781 575.375 397.777344 575.375 C 396.378906 575.375 395.246094 574.246094 395.246094 572.847656 C 395.246094 571.453125 396.378906 570.320312 397.777344 570.320312 " fill-opacity="1" fill-rule="nonzero"/></svg>