<svg xmlns="http://www.w3.org/2000/svg" xmlns:xlink="http://www.w3.org/1999/xlink" width="1920" zoomAndPan="magnify" viewBox="0 0 1440 809.999993" height="1080" preserveAspectRatio="xMidYMid meet" version="1.0"><defs><clipPath id="42c6cc5e1b"><path d="M 747 318.152344 L 759.4375 318.152344 L 759.4375 328.917969 L 747 328.917969 Z M 747 318.152344 " clip-rule="nonzero"/></clipPath><clipPath id="b2fe95fe7c"><path d="M 768.515625 261.535156 L 779.40625 261.535156 L 779.40625 271.296875 L 768.515625 271.296875 Z M 768.515625 261.535156 " clip-rule="nonzero"/></clipPath></defs><path fill="#000000" d="M 697.535156 289.992188 C 704.871094 296.234375 711.304688 300.058594 718.386719 302.757812 C 724.046875 304.914062 729.988281 304.878906 735.925781 304.515625 C 739.53125 304.292969 743.121094 303.972656 746.625 302.96875 C 747.960938 302.585938 749.117188 301.898438 750.359375 301.371094 C 756.007812 298.957031 759.980469 294.90625 762.453125 289.335938 C 762.921875 288.277344 763.109375 287.148438 762.964844 286.058594 C 762.535156 282.902344 761.90625 279.898438 759.488281 277.390625 C 755.980469 273.753906 753.085938 269.527344 748.933594 266.496094 C 747.738281 265.625 746.539062 264.757812 745.339844 263.890625 C 745.058594 263.6875 744.671875 263.328125 744.5625 262.964844 C 744.480469 262.683594 744.3125 261.625 744.71875 261.238281 C 744.996094 260.972656 745.347656 260.894531 745.71875 260.890625 C 746.152344 260.882812 746.550781 261.1875 746.9375 261.390625 C 747.894531 261.894531 748.84375 262.417969 749.789062 262.941406 C 751.683594 263.988281 753.574219 265.046875 755.515625 266.011719 C 755.785156 266.148438 756.058594 266.28125 756.332031 266.414062 C 758.898438 267.648438 761.269531 269.476562 763.09375 271.78125 C 765.15625 274.386719 767.742188 276.539062 768.832031 279.953125 C 769.875 283.226562 769.855469 286.371094 768.902344 289.488281 C 765.160156 301.714844 756.320312 307.933594 744.066406 310.105469 C 736.746094 311.402344 729.578125 310.492188 722.414062 308.949219 C 715.480469 307.460938 708.785156 305.238281 702.765625 301.527344 C 699.230469 299.34375 695.746094 296.929688 692.851562 293.847656 C 691.722656 292.644531 690.605469 291.425781 689.457031 290.234375 C 686.164062 286.816406 684.683594 282.585938 683.914062 278.042969 C 683.617188 276.300781 683.378906 274.546875 683.167969 272.792969 C 682.535156 267.4375 685.46875 261.71875 690.296875 259.347656 C 695.566406 256.761719 701.160156 255.277344 707.089844 255.5 C 709.570312 255.59375 711.929688 256.316406 714.195312 257.386719 C 715.410156 257.960938 716.75 258.3125 718.0625 258.644531 C 725.789062 260.605469 733.070312 263.644531 740.179688 267.207031 C 742.710938 268.480469 745.28125 269.636719 747.550781 271.34375 C 751.253906 274.132812 752.9375 278.070312 754.011719 282.402344 C 754.953125 286.191406 753.71875 289.265625 751.386719 292.210938 C 748.414062 295.96875 744.90625 298.984375 740.195312 300.140625 C 735.257812 301.351562 730.195312 301.25 725.1875 300.484375 C 718.964844 299.535156 713.214844 297.085938 707.816406 294.042969 C 703.144531 291.410156 699.253906 287.800781 696.941406 282.710938 C 696.066406 280.789062 694.738281 279.089844 694.792969 276.84375 C 694.933594 270.808594 699.222656 265.113281 706.210938 265.253906 C 712.507812 265.378906 718.613281 266.007812 724.328125 268.8125 C 729.03125 271.125 733.378906 273.945312 736.601562 278.167969 C 738.367188 280.480469 738.265625 283.769531 736.535156 286.09375 C 734.164062 289.269531 730.738281 290.632812 727.003906 290.890625 C 720.378906 291.347656 715.183594 288.570312 711.4375 283.121094 C 710.722656 282.082031 710.339844 280.894531 710.15625 279.664062 C 709.890625 277.851562 711.21875 275.671875 712.914062 275.488281 C 713.632812 275.410156 714.351562 275.378906 715.070312 275.394531 C 716.796875 275.4375 718.511719 275.777344 720.113281 276.421875 C 720.921875 276.746094 721.703125 277.140625 722.4375 277.601562 C 723.074219 278.003906 723.121094 279.09375 722.535156 279.582031 C 722.078125 279.964844 721.417969 280.179688 720.828125 280.238281 C 720.191406 280.300781 719.5625 280.042969 718.9375 279.953125 C 717.355469 279.726562 716.632812 280.664062 717.125 282.195312 C 717.574219 283.601562 718.695312 284.574219 719.980469 284.902344 C 722.871094 285.648438 725.84375 285.945312 728.65625 284.511719 C 731.15625 283.238281 731.648438 281.0625 729.542969 279.257812 C 723.28125 273.882812 716.191406 270.226562 707.667969 270.519531 C 701.410156 270.734375 699.289062 273.902344 700.898438 279.90625 C 701.78125 283.203125 703.691406 285.71875 706.519531 287.566406 C 714.894531 293.035156 724.238281 295.078125 734.070312 294.550781 C 739.628906 294.25 744.050781 291.414062 746.53125 286.175781 C 747.628906 283.855469 747.097656 281.605469 746.136719 279.363281 C 744.8125 276.273438 742.175781 274.601562 739.410156 273.078125 C 732.820312 269.453125 726.089844 266.117188 718.796875 264.125 C 713.09375 262.5625 707.386719 260.871094 701.347656 261.324219 C 695.980469 261.726562 691.484375 263.492188 689.554688 269.046875 C 688.355469 272.503906 688.410156 275.964844 689.769531 279.402344 C 692.007812 285.074219 692.65625 285.933594 697.535156 289.992188 " fill-opacity="1" fill-rule="nonzero"/><path fill="#88504a" d="M 685.601562 265.898438 C 686.394531 263.914062 687.53125 262.308594 689.5 261.289062 C 694.34375 258.78125 699.472656 257.328125 704.910156 256.90625 C 707.09375 256.738281 709.0625 257.457031 711.097656 258.125 C 714.242188 259.148438 717.527344 259.753906 720.683594 260.742188 C 727.003906 262.71875 733.171875 265.09375 739.0625 268.164062 C 741.199219 269.28125 743.484375 270.117188 745.523438 271.453125 C 749.769531 274.230469 751.402344 278.515625 752.402344 283.175781 C 753.453125 288.066406 749.828125 292.589844 745.417969 295.871094 C 739.164062 300.527344 732.089844 300.011719 725.144531 299.0625 C 718.382812 298.136719 711.925781 295.839844 706.171875 291.964844 C 701.929688 289.109375 698.925781 285.296875 696.820312 280.660156 C 694.804688 276.222656 697.289062 268.910156 702.632812 266.976562 C 703.019531 266.835938 703.429688 266.65625 703.824219 266.65625 C 709.027344 266.605469 714.222656 266.335938 719.277344 268.164062 C 724.8125 270.164062 729.769531 272.949219 733.90625 277.191406 C 737.851562 281.246094 736.472656 286.175781 731.339844 288.402344 C 724.324219 291.441406 715.757812 288.265625 712.089844 281.527344 C 711.375 280.210938 711.511719 279.039062 712.230469 277.863281 C 712.890625 276.78125 713.957031 276.503906 715.160156 276.648438 C 717.214844 276.890625 719.199219 277.34375 721.347656 278.554688 C 720.136719 278.894531 719.339844 278.554688 718.535156 278.421875 C 716.421875 278.0625 715.417969 278.953125 715.480469 281.105469 C 715.558594 283.679688 718.023438 286.167969 721.085938 286.65625 C 723.515625 287.042969 725.941406 286.898438 728.296875 286.207031 C 732.550781 284.960938 733.84375 280.90625 730.617188 278.136719 C 723.917969 272.378906 716.167969 269.019531 707.136719 269.121094 C 705.191406 269.140625 703.421875 269.796875 701.714844 270.648438 C 700.433594 271.292969 699.558594 272.289062 699.320312 273.746094 C 698.378906 279.550781 700.296875 284.277344 704.8125 287.996094 C 710.671875 292.828125 717.855469 294.230469 725.035156 295.496094 C 729.113281 296.210938 733.222656 296.40625 737.371094 295.398438 C 742.425781 294.164062 745.925781 291.164062 748.085938 286.640625 C 749.882812 282.886719 748.425781 279.46875 746.097656 276.464844 C 743.804688 273.5 740.464844 271.886719 737.179688 270.234375 C 732.210938 267.738281 727.21875 265.320312 721.890625 263.679688 C 714.640625 261.441406 707.34375 259.226562 699.628906 260.101562 C 690.480469 261.140625 686.253906 267.21875 687.542969 276.179688 C 688.292969 281.398438 690.730469 285.820312 694.8125 289.355469 C 700.6875 294.449219 706.914062 298.949219 713.953125 302.382812 C 719.769531 305.21875 725.851562 306.25 732.203125 306.085938 C 737.230469 305.953125 742.25 305.753906 747.148438 304.398438 C 748.605469 303.996094 749.875 303.304688 751.214844 302.6875 C 756.902344 300.054688 761.117188 295.957031 763.902344 290.378906 C 764.246094 289.683594 764.53125 288.988281 764.589844 288.207031 C 764.914062 283.921875 763.945312 280.109375 761.011719 276.761719 C 757.246094 272.457031 753.535156 268.125 748.988281 264.59375 C 747.964844 263.800781 746.871094 263.105469 745.8125 262.367188 C 753.8125 265.332031 760.914062 269.609375 765.769531 276.886719 C 768.464844 280.925781 768.675781 285.285156 767.117188 289.738281 C 764.4375 297.414062 759.855469 303.398438 751.949219 306.46875 C 745.101562 309.125 738.058594 309.707031 730.859375 308.761719 C 726.003906 308.132812 721.101562 307.679688 716.46875 305.882812 C 712.78125 304.453125 708.875 303.535156 705.472656 301.425781 C 700.949219 298.617188 696.703125 295.464844 692.984375 291.617188 C 690.421875 288.960938 687.820312 286.347656 686.726562 282.746094 C 685.042969 277.238281 683.285156 271.699219 685.601562 265.898438 " fill-opacity="1" fill-rule="nonzero"/><path fill="#000000" d="M 689.378906 306.695312 C 691.417969 309.777344 694.574219 311.894531 697.671875 314.042969 C 705.074219 319.167969 713.132812 322.65625 722.203125 323.558594 C 723.421875 323.683594 724.558594 323.527344 725.6875 323.136719 C 726.199219 322.960938 726.710938 322.824219 727.25 322.960938 C 727.59375 323.050781 728.015625 323.144531 728.007812 323.574219 C 728 324.058594 727.539062 323.960938 727.207031 324.03125 C 722.949219 324.953125 718.765625 324.535156 714.613281 323.382812 C 704.277344 320.515625 695.464844 315.113281 687.925781 307.578125 C 687.566406 307.214844 687.046875 306.867188 687.3125 306.253906 C 687.484375 305.851562 688.5625 306.054688 689.378906 306.695312 " fill-opacity="1" fill-rule="nonzero"/><g clip-path="url(#42c6cc5e1b)"><path fill="#000000" d="M 749.28125 327.078125 C 747.402344 325.480469 746.671875 323.457031 747.308594 321.636719 C 748.160156 319.214844 749.527344 318.238281 752.460938 318.203125 C 755 318.171875 757.535156 318.421875 758.890625 321.007812 C 759.972656 323.074219 759.394531 325.5 757.59375 327.320312 C 755.394531 329.539062 752.054688 329.441406 749.28125 327.078125 " fill-opacity="1" fill-rule="nonzero"/></g><path fill="#000000" d="M 755.894531 252.390625 C 756.214844 252.652344 756.570312 252.886719 756.839844 253.191406 C 757.1875 253.582031 758.1875 253.804688 757.640625 254.460938 C 757.207031 254.984375 756.335938 254.625 755.886719 254.164062 C 754.882812 253.128906 753.617188 252.476562 752.488281 251.632812 C 745.253906 246.242188 736.871094 244.914062 728.15625 244.773438 C 727.105469 244.757812 726.023438 244.46875 724.980469 244.871094 C 724.269531 245.148438 723.746094 244.90625 723.664062 244.199219 C 723.578125 243.496094 724.25 243.34375 724.769531 243.34375 C 726.78125 243.335938 728.816406 243.214844 730.796875 243.472656 C 734.835938 243.992188 738.941406 244.089844 742.875 245.351562 C 747.667969 246.886719 751.9375 249.339844 755.894531 252.390625 " fill-opacity="1" fill-rule="nonzero"/><path fill="#000000" d="M 671.914062 269.597656 C 673.824219 271.207031 674.414062 273.121094 673.785156 275.039062 C 673.023438 277.367188 671.65625 278.445312 669.308594 278.671875 C 666.566406 278.941406 664.277344 277.789062 662.390625 276.085938 C 660.90625 274.75 661.226562 272.738281 661.667969 270.933594 C 662.167969 268.882812 664.027344 268.507812 665.648438 268.203125 C 667.992188 267.757812 670.203125 268.460938 671.914062 269.597656 " fill-opacity="1" fill-rule="nonzero"/><path fill="#000000" d="M 679.675781 308.671875 C 680.5 308.566406 681.371094 308.867188 681.542969 309.722656 C 681.878906 311.367188 683.054688 312.394531 684.109375 313.417969 C 688.785156 317.960938 693.914062 321.910156 699.832031 324.773438 C 701.339844 325.503906 702.863281 326.039062 704.558594 326.125 C 705.269531 326.160156 706.429688 326.199219 706.289062 327.183594 C 706.144531 328.164062 705.089844 327.617188 704.480469 327.515625 C 700.734375 326.878906 697.421875 325.191406 694.296875 323.132812 C 689.5 319.972656 684.875 316.609375 681.257812 312.074219 C 680.671875 311.339844 680.171875 310.535156 679.652344 309.75 C 679.460938 309.457031 679.28125 309.128906 679.675781 308.671875 " fill-opacity="1" fill-rule="nonzero"/><g clip-path="url(#b2fe95fe7c)"><path fill="#000000" d="M 777.742188 262.921875 C 779.65625 264.585938 780.039062 267.707031 778.269531 269.347656 C 775.816406 271.628906 773.117188 271.839844 770.3125 269.527344 C 768.320312 267.882812 768.113281 265.035156 769.707031 263.203125 C 771.308594 261.367188 775.769531 261.210938 777.742188 262.921875 " fill-opacity="1" fill-rule="nonzero"/></g><path fill="#ccb5ac" d="M 662.78125 273.5625 C 662.761719 271.855469 663.351562 270.488281 665.148438 269.820312 C 667.332031 269.011719 669.3125 269.3125 671.066406 270.4375 C 672.507812 271.683594 672.96875 273.03125 672.359375 274.675781 C 671.777344 276.257812 670.667969 277.09375 669 277.285156 C 667.597656 277.445312 665.703125 276.730469 665.578125 276.773438 C 664.042969 276.222656 662.792969 274.601562 662.78125 273.5625 " fill-opacity="1" fill-rule="nonzero"/><path fill="#ccb5ac" d="M 771.105469 268.621094 C 769.941406 267.554688 769.820312 265.25 770.875 264.082031 C 772.09375 262.730469 775.03125 262.71875 776.589844 264.054688 C 777.878906 265.15625 778.101562 266.957031 777.105469 268.15625 C 775.796875 269.726562 772.585938 269.972656 771.105469 268.621094 " fill-opacity="1" fill-rule="nonzero"/><path fill="#ccb5ac" d="M 749.632812 320.789062 C 750.871094 319.253906 754.820312 319.152344 756.722656 320.609375 C 758.175781 321.722656 758.085938 324.339844 756.527344 326.15625 C 755.285156 327.601562 752.140625 327.46875 750.210938 325.878906 C 748.410156 324.410156 748.203125 322.5625 749.632812 320.789062 " fill-opacity="1" fill-rule="nonzero"/><path fill="#000000" d="M 737.714844 235.425781 C 737.941406 235.6875 738.40625 235.859375 738.15625 236.28125 C 737.890625 236.726562 737.449219 236.597656 737.046875 236.449219 C 734.25 235.40625 731.3125 235.046875 728.371094 234.699219 C 725.40625 234.34375 722.601562 234.921875 719.886719 236.039062 C 718.027344 236.804688 716.1875 237.613281 714.332031 238.386719 C 713.832031 238.597656 713.210938 238.808594 712.902344 238.214844 C 712.507812 237.460938 713.335938 237.355469 713.738281 237.167969 C 717.375 235.472656 720.933594 233.4375 725.054688 233.253906 C 729.226562 233.070312 733.289062 233.945312 737.261719 235.183594 C 737.429688 235.234375 737.574219 235.347656 737.714844 235.425781 " fill-opacity="1" fill-rule="nonzero"/></svg>