<svg xmlns="http://www.w3.org/2000/svg" xmlns:xlink="http://www.w3.org/1999/xlink" width="869" zoomAndPan="magnify" viewBox="0 0 651.75 651.749981" height="869" preserveAspectRatio="xMidYMid meet" version="1.0"><defs><clipPath id="ceabdf9edc"><path d="M 0.0429688 0 L 636.722656 0 L 636.722656 651.5 L 0.0429688 651.5 Z M 0.0429688 0 " clip-rule="nonzero"/></clipPath></defs><g clip-path="url(#ceabdf9edc)"><path fill="#000000" d="M 117.742188 184.851562 C 113.519531 195.269531 105.648438 201.484375 93.78125 203.375 C 84.707031 204.820312 73.914062 206.4375 67.640625 212.121094 C 55.863281 222.792969 43.042969 225.390625 28.375 225.128906 C 26.464844 225.09375 23.417969 226.871094 22.800781 228.519531 C 21.402344 232.285156 20.800781 236.476562 20.679688 240.515625 C 20.636719 242.035156 22.738281 244.890625 24.007812 244.976562 C 35.066406 245.710938 45.84375 246.253906 56.058594 239.488281 C 74.386719 227.351562 93.339844 216.851562 115.605469 212.324219 C 133.734375 208.636719 143.519531 195.613281 140.722656 177.03125 C 137.886719 158.179688 140.8125 142.207031 153.585938 127.535156 C 161.679688 118.238281 168.566406 107.683594 174.738281 96.972656 C 181.210938 85.742188 181.582031 73.4375 176.121094 61.40625 C 175.363281 59.734375 173.417969 57.734375 171.777344 57.484375 C 165.574219 56.535156 159.96875 62.929688 160.734375 69.21875 C 161.21875 73.234375 162.808594 78.164062 161.167969 81.214844 C 153.453125 95.574219 146.238281 110.609375 136 123.074219 C 128.296875 132.453125 120.636719 140.738281 119.761719 153.300781 C 119.425781 158.113281 119.25 162.9375 119 167.757812 M 503.8125 566.542969 C 503.804688 565.789062 503.796875 565.039062 503.789062 564.289062 C 500.675781 563.417969 497.5625 561.808594 494.460938 561.832031 C 488.28125 561.878906 482.078125 562.585938 475.949219 563.445312 C 464.03125 565.121094 452.171875 567.175781 440.261719 568.914062 C 411.4375 573.128906 383.828125 567.144531 357.800781 555.875 C 325.585938 541.921875 294.046875 526.320312 262.765625 510.351562 C 230.273438 493.761719 195.710938 485.066406 160.078125 478.792969 C 139.640625 475.195312 119.554688 470.121094 98.59375 469.746094 C 84.5 469.488281 70.855469 470.847656 56.042969 475.289062 C 58.964844 481.554688 61.378906 487.226562 64.308594 492.617188 C 64.9375 493.777344 67.480469 494.546875 69.066406 494.4375 C 84.203125 493.375 99.308594 491.449219 114.457031 491.015625 C 133.703125 490.46875 152.980469 490.980469 172.238281 491.207031 C 187.183594 491.386719 201.941406 492.175781 215.183594 500.742188 C 219.542969 503.5625 224.984375 504.730469 229.945312 506.605469 C 244.589844 512.136719 259.554688 516.960938 273.800781 523.378906 C 285.234375 528.53125 295.609375 535.976562 306.796875 541.742188 C 319.808594 548.445312 333.078125 554.675781 346.433594 560.667969 C 372.386719 572.316406 398.042969 583.863281 428.027344 581.757812 C 450.0625 580.210938 471.605469 577.042969 492.921875 571.800781 C 496.75 570.859375 500.191406 568.335938 503.8125 566.542969 Z M 149.980469 67.210938 C 107.445312 90.746094 72.644531 120.339844 50.441406 163.050781 C 41.316406 180.609375 32.671875 198.449219 26.945312 218.429688 C 38.664062 219.183594 48.984375 219.511719 56.6875 212.21875 C 66.765625 202.679688 78.488281 198.507812 91.894531 197.363281 C 104.453125 196.285156 111.871094 187.875 111.960938 175.242188 C 112.003906 169.441406 111.730469 163.605469 112.246094 157.84375 C 113.460938 144.28125 115.679688 131.730469 127.640625 121.921875 C 139.433594 112.25 147.269531 98.773438 151.03125 83.71875 C 152.117188 79.371094 150.53125 74.355469 149.980469 67.210938 Z M 320.40625 70.023438 C 312.285156 84.566406 304.429688 99.253906 296.792969 114.0625 C 288.835938 129.496094 294.199219 141.394531 310.820312 146.1875 C 318.203125 148.3125 325.453125 150.953125 332.894531 152.839844 C 345.960938 156.152344 358.976562 160.285156 372.28125 161.898438 C 399.109375 165.164062 425.359375 160.222656 450.878906 152.226562 C 481.039062 142.777344 508.199219 126.910156 535.265625 110.964844 C 544.808594 105.339844 544.820312 105.363281 536.996094 96.808594 C 536.832031 96.632812 536.695312 96.429688 536.53125 96.253906 C 531.296875 90.832031 527.910156 90.796875 521.699219 95.265625 C 511.730469 102.429688 502.183594 110.554688 491.3125 116.003906 C 476.777344 123.296875 461.128906 128.402344 445.984375 134.5 C 432.417969 139.957031 418.269531 142.441406 404.183594 138.359375 C 387.800781 133.613281 372.074219 126.609375 355.710938 121.785156 C 336.039062 115.984375 335.359375 92.550781 343.796875 79.4375 C 355.027344 61.980469 371.085938 49.238281 388.015625 37.578125 C 395.019531 32.753906 401.894531 27.746094 409.378906 22.433594 C 398.046875 15.785156 383.828125 16.113281 374.421875 21.167969 C 357.671875 30.152344 345.375 44.238281 332.046875 57.125 M 417.546875 132.800781 C 426.558594 130.320312 436.515625 127.777344 446.335938 124.804688 C 451.625 123.210938 456.601562 120.582031 461.882812 118.945312 C 481.75 112.777344 498.398438 100.753906 515.644531 89.804688 C 520.160156 86.941406 519.679688 83.789062 516.164062 80.375 C 512.714844 77.027344 509.722656 73.132812 505.964844 70.191406 C 495.617188 62.082031 485.742188 52.917969 474.269531 46.824219 C 459.65625 39.066406 443.730469 33.738281 428.195312 27.8125 C 425.429688 26.753906 420.976562 26.683594 418.730469 28.230469 C 401.664062 40.003906 384.488281 51.71875 368.34375 64.683594 C 361.21875 70.40625 355.597656 78.507812 350.738281 86.417969 C 344.144531 97.148438 349.5 109.550781 361.40625 113.640625 C 371.890625 117.242188 382.398438 120.761719 392.890625 124.339844 C 400.578125 126.960938 408.261719 129.609375 417.546875 132.800781 Z M 329.738281 10.746094 C 324.867188 12.996094 320.324219 14.265625 316.84375 16.921875 C 312.792969 20.027344 309.964844 24.691406 306.078125 28.070312 C 298.242188 34.875 289 40.347656 282.214844 48.023438 C 267.132812 65.09375 251.414062 81.75 240.257812 101.980469 C 228.574219 123.15625 230.058594 154.574219 252.640625 173.078125 C 272.078125 189.003906 295.171875 194.246094 318.480469 198.503906 C 337.628906 202.003906 357.308594 203.933594 376.765625 204 C 396.800781 204.0625 416.800781 204.992188 437.074219 200.785156 C 462.144531 195.578125 486.089844 187.980469 508.652344 176.582031 C 524.425781 168.613281 538.808594 157.882812 553.757812 148.289062 C 557.609375 145.816406 561.617188 143.355469 564.792969 140.136719 C 566.316406 138.597656 567.355469 133.96875 566.386719 133.027344 C 561.296875 128.085938 560.601562 118.058594 551.847656 117.917969 C 546.847656 117.832031 541.550781 120.761719 536.796875 123.148438 C 514.617188 134.324219 493.042969 146.832031 470.324219 156.75 C 456.367188 162.84375 440.796875 165.335938 425.855469 169.0625 C 406.460938 173.902344 386.554688 176.683594 366.925781 172.621094 C 345.234375 168.136719 323.75 162.167969 302.675781 155.316406 C 285.144531 149.617188 281.148438 141.289062 283.152344 123.164062 C 285.089844 105.679688 295.359375 91.960938 303.691406 77.402344 C 307.59375 70.585938 311.773438 63.8125 316.707031 57.730469 C 323.453125 49.414062 330.179688 41.140625 339.242188 34.765625 C 346.785156 29.457031 352.839844 22.042969 360.5 14.648438 C 355.136719 13.773438 349.832031 12.792969 344.488281 12.070312 M 293.246094 637.410156 C 297.125 637.664062 300.277344 637.71875 303.394531 638.09375 C 341.132812 642.65625 363.59375 644.839844 396.839844 627.933594 C 401.109375 625.761719 409.011719 624.753906 419.824219 617.503906 C 421.066406 616.675781 422.429688 616.019531 423.84375 615.542969 C 425.535156 614.976562 425.957031 614.828125 426.605469 614.597656 C 429.4375 613.609375 432.230469 612.515625 435.011719 611.402344 C 445.886719 607.054688 458.039062 605.875 467.171875 597.183594 C 471.71875 592.851562 477.433594 589.742188 482.625 586.078125 C 480.667969 585.140625 479.304688 585.453125 477.925781 585.605469 C 457.382812 587.84375 436.894531 591.058594 416.292969 591.976562 C 399.136719 592.742188 382.382812 589.101562 366.886719 580.53125 C 359.371094 576.375 350.84375 574.097656 342.960938 570.554688 C 330.253906 564.851562 317.570312 559.070312 305.121094 552.828125 C 294.660156 547.582031 284.550781 541.628906 274.179688 535.933594 C 271.785156 534.917969 273.242188 534.917969 268.878906 533.46875 C 265.96875 532.011719 266.925781 532.839844 263.640625 531.214844 C 254.769531 526.832031 245.601562 523.019531 236.398438 519.359375 C 222.972656 514.023438 209.414062 509.007812 195.902344 503.878906 C 194.117188 503.203125 192.308594 502.328125 190.453125 502.144531 C 166.242188 499.707031 142.097656 495.984375 117.625 498.933594 C 104.953125 500.460938 92.21875 501.46875 79.542969 502.972656 C 77.40625 503.226562 75.425781 504.800781 73.371094 505.765625 C 74.953125 507.671875 76.378906 509.738281 78.152344 511.453125 C 80.558594 513.78125 82.753906 517.480469 85.660156 520.390625 C 88.570312 524.75 98.992188 537.773438 106.960938 546.644531 C 126.109375 567.953125 146.722656 587.503906 173.652344 598.714844 C 193.246094 606.871094 212.671875 616.117188 233.074219 621.433594 M 544.9375 529.757812 C 538.59375 528.949219 534.535156 527.800781 530.558594 528.042969 C 512.324219 529.144531 494.246094 527.070312 476.84375 522.472656 C 455.460938 516.816406 434.328125 509.8125 413.699219 501.816406 C 382.019531 489.539062 352.539062 472.664062 325.578125 452.128906 C 302.742188 434.730469 281.132812 415.664062 259.574219 396.667969 C 237.589844 377.289062 212.609375 363.195312 184.582031 355.855469 C 171.398438 352.402344 156.808594 354.128906 142.851562 353.867188 C 102.402344 353.121094 64.402344 363.234375 27.832031 379.847656 C 22.882812 382.09375 21.21875 384.730469 22.992188 389.898438 C 26.265625 399.429688 29.175781 409.078125 32.398438 418.625 C 36.25 430.050781 40.683594 441.296875 44.078125 452.847656 C 46.480469 461.03125 52.371094 461.5625 58.796875 460.914062 C 86.761719 458.082031 114.445312 458.445312 142.035156 464.945312 C 161.738281 469.582031 181.855469 472.433594 201.644531 476.742188 C 219.34375 480.597656 236.550781 485.890625 252.695312 494.679688 C 263.667969 500.660156 275.769531 504.527344 287.199219 509.714844 C 302.328125 516.582031 317.199219 524.019531 332.347656 530.835938 C 350.949219 539.199219 369.253906 548.597656 388.539062 554.957031 C 411.886719 562.660156 436.222656 560.027344 459.898438 554.972656 C 476.585938 551.414062 493.011719 548.867188 510.039062 552.148438 C 513.804688 552.875 519.039062 552.902344 521.761719 550.832031 C 529.441406 544.996094 536.164062 537.90625 544.9375 529.757812 Z M 616.921875 327.769531 C 605.640625 336.632812 594.65625 345.910156 583.023438 354.285156 C 568.808594 364.527344 555.546875 376.417969 538.398438 382.015625 C 527.40625 385.605469 516.699219 390.589844 505.445312 392.703125 C 491.558594 395.308594 477.261719 396.0625 463.097656 396.722656 C 451.546875 397.261719 439.785156 397.605469 428.394531 396.046875 C 408.988281 393.398438 392.058594 384.335938 375.375 374.121094 C 354.628906 361.421875 336.09375 346.742188 319.171875 329.132812 C 295.21875 304.207031 265.546875 287.453125 231.027344 282.847656 C 214.160156 280.59375 196.535156 283.558594 179.292969 284.757812 C 172.644531 285.21875 165.855469 286.609375 159.570312 288.828125 C 140.210938 295.667969 120.972656 302.878906 101.851562 310.375 C 71.867188 322.125 45.308594 339.597656 20.699219 360.148438 C 15.972656 364.089844 18.292969 369.230469 19.769531 373.644531 C 21.5 378.824219 25.585938 375.785156 28.296875 374.761719 C 36.4375 371.6875 44.296875 367.882812 52.402344 364.71875 C 87.566406 350.984375 124.476562 348.324219 161.667969 348.449219 C 173.140625 348.484375 184.890625 349.546875 195.984375 352.28125 C 204.933594 354.480469 213.582031 359.117188 221.484375 364.078125 C 236.71875 373.632812 251.9375 383.410156 266.039062 394.527344 C 280.960938 406.289062 294.046875 420.367188 308.910156 432.21875 C 323.195312 443.609375 338.503906 453.773438 353.746094 463.902344 C 380.960938 481.980469 409.890625 496.566406 441.261719 506.253906 C 462.796875 512.902344 484.503906 518.535156 506.941406 520.859375 C 520.363281 522.246094 533.855469 523 547.324219 523.9375 C 548.359375 524.011719 549.753906 523.605469 550.464844 522.898438 C 553.828125 519.535156 557.308594 516.21875 560.191406 512.457031 C 566.226562 504.570312 572.054688 496.515625 577.699219 488.335938 C 582.957031 480.71875 588.867188 473.3125 592.664062 464.984375 C 597.09375 455.265625 599.507812 444.632812 602.871094 434.417969 C 607.230469 421.203125 613.246094 408.300781 615.703125 394.746094 C 619.953125 371.339844 622.003906 347.539062 624.980469 323.902344 M 253.542969 59.847656 C 264.089844 47.699219 276.199219 36.914062 287.515625 25.429688 C 289.953125 22.949219 291.855469 19.945312 294.546875 16.492188 C 293.648438 15.796875 292.644531 14.371094 291.8125 14.46875 C 281.601562 15.625 271.261719 16.296875 261.269531 18.519531 C 251.046875 20.792969 241.355469 25.578125 231.105469 27.582031 C 214.535156 30.828125 200.707031 39.246094 186.875 48.039062 C 183.371094 50.269531 182.527344 52.878906 183.609375 56.890625 C 185.421875 63.617188 188.035156 70.519531 187.921875 77.304688 C 187.578125 97.816406 176.734375 114.113281 163.183594 128.09375 C 151.113281 140.546875 145.589844 154.027344 148.019531 171.246094 C 151.710938 197.402344 138.46875 215.375 112.4375 220.132812 C 93.339844 223.628906 77.324219 233.710938 61.773438 244.320312 C 55.914062 248.320312 50.363281 251.453125 43.398438 251.632812 C 35.261719 251.847656 27.117188 251.683594 18.230469 251.683594 C 15.414062 283.480469 5.886719 314.042969 15.890625 346.492188 C 19.394531 344.429688 22.109375 343.023438 24.617188 341.320312 C 46.203125 326.6875 67.617188 311.785156 92.097656 302.113281 C 126.394531 288.558594 159.691406 271.757812 197.800781 270.984375 C 207.171875 270.792969 216.613281 268.378906 225.863281 269.085938 C 233.578125 269.671875 240.980469 273.628906 248.65625 275.578125 C 280.019531 283.546875 306.640625 299.4375 328.542969 323.160156 C 340.675781 336.300781 353.824219 348.144531 369.308594 357.253906 C 377.382812 362 385.101562 367.421875 393.445312 371.625 C 401.546875 375.710938 409.972656 380.085938 418.742188 381.71875 C 431.671875 384.121094 445.019531 384.804688 458.214844 385.136719 C 479.511719 385.675781 500.773438 384.960938 520.496094 375.164062 C 521.332031 374.746094 522.460938 374.894531 523.300781 374.476562 C 536.183594 368.078125 550.15625 363.179688 561.660156 354.863281 C 582.527344 339.777344 601.992188 322.722656 621.835938 306.246094 C 623.550781 304.816406 624.875 301.367188 624.488281 299.195312 C 621.4375 281.921875 618.101562 264.691406 614.507812 247.523438 C 608.734375 219.941406 600.671875 193.070312 587.96875 167.792969 C 584.667969 161.222656 580.667969 155 577.265625 149.082031 C 571.773438 151.898438 567.214844 153.953125 562.941406 156.492188 C 547.878906 165.453125 533.101562 174.910156 517.855469 183.539062 C 506.746094 189.828125 495.503906 196.359375 483.539062 200.535156 C 467.390625 206.171875 450.703125 211.003906 433.851562 213.664062 C 417.816406 216.195312 401.257812 216.191406 384.945312 215.984375 C 370.964844 215.808594 356.929688 214.316406 343.054688 212.429688 C 322.28125 209.601562 301.378906 206.941406 281.023438 202.144531 C 271.460938 199.890625 263.25 192.347656 254.054688 187.992188 C 231.757812 177.4375 216.808594 149.96875 221.347656 123.117188 C 222.480469 116.417969 223.886719 109.605469 226.539062 103.3125 M 7.585938 373.648438 C 5.21875 360.355469 1.289062 347.175781 0.511719 333.808594 C -0.449219 317.253906 0.0898438 300.433594 1.90625 283.941406 C 3.953125 265.351562 6.285156 246.417969 11.851562 228.691406 C 19.113281 205.5625 28.851562 183.085938 39.117188 161.070312 C 45.417969 147.554688 54.152344 135.042969 62.765625 122.761719 C 73.382812 107.625 84.859375 93.074219 96.339844 78.566406 C 98.429688 75.925781 102.15625 74.328125 105.414062 72.898438 C 117.734375 67.480469 130.285156 62.570312 142.523438 56.976562 C 149.03125 54 154.695312 48.527344 161.414062 46.796875 C 174.917969 43.316406 184.671875 33.652344 196.574219 27.964844 C 210.800781 21.167969 226.414062 17.246094 241.457031 12.167969 C 248.027344 9.949219 254.589844 7.644531 261.296875 5.9375 C 267.917969 4.25 274.699219 3.117188 281.464844 2.101562 C 282.867188 1.890625 283.417969 1.558594 285.339844 1.277344 C 286.152344 1.15625 286.988281 1.40625 287.800781 1.273438 C 295.050781 0.101562 291.207031 1.472656 299.867188 0.09375 C 314.089844 0.09375 327.660156 0.316406 341.226562 0.046875 C 366.621094 -0.46875 391.554688 3.5625 416.195312 8.714844 C 425.941406 10.753906 434.6875 17.304688 444.074219 21.386719 C 457.070312 27.046875 470.453125 31.851562 483.234375 37.949219 C 489.605469 41 495.207031 45.84375 500.800781 50.320312 C 532.453125 75.625 563.320312 102.152344 584.378906 137.136719 C 596.71875 157.636719 606.121094 180.28125 614.058594 202.929688 C 622.636719 227.402344 628.402344 252.902344 634.472656 278.175781 C 636.628906 287.160156 636.90625 296.816406 636.636719 306.125 C 635.722656 337.78125 634.03125 369.40625 625.878906 400.246094 C 623.660156 408.632812 620.621094 416.804688 618.527344 425.214844 C 616.8125 432.125 616.476562 439.394531 614.578125 446.242188 C 610.859375 459.683594 603.882812 471.578125 596.058594 483.09375 C 588.28125 494.539062 581.375 506.582031 573.730469 518.121094 C 571.039062 522.183594 567.5 525.773438 563.960938 529.1875 C 553.457031 539.308594 541.066406 548 532.589844 559.570312 C 522.96875 572.699219 508.757812 579.085938 497.425781 589.390625 C 482.371094 603.085938 464.300781 612.152344 447.367188 622.917969 C 440.175781 627.492188 431.199219 629.179688 423.660156 633.3125 C 407.664062 642.070312 389.558594 643.410156 372.464844 647.507812 C 355.234375 651.640625 336.777344 651.078125 318.832031 651.667969 C 308.753906 652.003906 298.628906 651.167969 288.53125 650.421875 C 286.621094 650.28125 284.71875 649.964844 282.917969 649.308594 C 278.785156 647.804688 276.089844 648.515625 268.878906 646.824219 C 267.546875 646.515625 264.105469 644.960938 262.792969 644.578125 C 254.046875 642.007812 249.984375 642.316406 247.625 641.105469 C 230.984375 636.613281 214.546875 631.183594 197.710938 627.648438 C 171.089844 622.054688 153.242188 603.378906 133.894531 586.894531 C 123.058594 577.660156 112.269531 568.214844 102.59375 557.808594 C 86.347656 540.34375 70.753906 522.246094 55.476562 503.921875 C 52.167969 499.957031 51.617188 493.792969 49.339844 488.855469 C 43.445312 476.066406 36.441406 463.722656 31.453125 450.597656 C 24.40625 432.0625 18.777344 412.980469 12.53125 394.136719 " fill-opacity="1" fill-rule="nonzero"/></g></svg>